<svg xmlns="http://www.w3.org/2000/svg" viewBox="0 0 996.45 996.45"><defs><style>.cls-1{fill:#fff;}.cls-2,.cls-5{fill:#633001;}.cls-2,.cls-4{fill-rule:evenodd;}.cls-3{fill:#fedc90;}.cls-4{fill:#d1884f;}</style></defs><g id="Layer_2" data-name="Layer 2"><g id="Layer_1-2" data-name="Layer 1"><circle class="cls-1" cx="498.23" cy="498.23" r="498.23"/><path class="cls-2" d="M266,246.6c-11.43-59.48,34.32-114.38,93.79-114.38,52.61,0,96.08,43.47,96.08,96.08v119c13.72,0,27.45-2.29,41.17-2.29s25.16,0,38.89,2.29V228.3c0-52.61,43.46-96.08,96.07-96.08,59.48,0,105.23,54.9,96.08,114.38L703,386.14C792.17,425,860.8,493.65,860.8,578.29V630.9c0,70.91-45.75,130.39-112.09,169.28-66.34,41.17-153.27,64.05-251.63,64.05s-185.29-22.88-251.62-64.05C181.4,761.29,135.65,701.81,135.65,630.9V578.29c0-84.64,66.34-153.27,155.56-192.15Zm402.6,157.84,29.74-164.7c6.87-41.18-22.87-80.07-66.34-80.07A66.38,66.38,0,0,0,565.71,226V377c-9.15-2.29-20.59-2.29-29.74-2.29-13.73,0-25.16-2.29-38.89-2.29s-27.45,0-41.17,2.29c-9.15,0-20.59,2.29-29.74,2.29V228.3A66.39,66.39,0,0,0,359.83,162c-41.17,0-73.2,38.89-64.05,80.06l29.74,164.7c-96.08,36.6-160.13,100.66-160.13,173.86v52.61c0,112.09,148.69,203.59,331.69,203.59s331.69-91.5,331.69-203.59V580.58C831.06,505.09,767,441,668.64,404.44Z"/><path class="cls-3" d="M831.06,631.37c0,113.09-149.2,205.4-332.83,205.4s-332.84-92.31-332.84-205.4V578.29H831.06v53.08Z"/><path class="cls-4" d="M293.93,242c-9.18-41.17,23-79.61,64.28-80.06,38.72-.42,68,29.74,68,66.34V377c22.95-2.29,44.22-4.58,69.47-4.58,23,0,46.2-.28,69.15,2V228.3c0-36.6,28.68-68.63,67.25-68.63,41.32,0,74.47,37,65.89,82.35L668.64,404.44C765.05,441,831.06,507.38,831.06,580.58c0,112.08-149.2,203.58-332.83,203.58s-332.84-91.5-332.84-203.58c0-73.2,62-137.26,158.38-173.86Z"/><path class="cls-5" d="M405.58,564.56c0,29.74-16,54.9-36.6,54.9s-36.6-25.16-36.6-54.9,16-54.9,36.6-54.9S405.58,534.83,405.58,564.56Z"/><path class="cls-5" d="M659.49,564.56c0,29.74-16,54.9-36.6,54.9s-36.6-25.16-36.6-54.9,16-54.9,36.6-54.9S659.49,534.83,659.49,564.56Z"/></g></g></svg>