<?xml version="1.0" encoding="utf-8"?>
<!-- Generator: Adobe Illustrator 22.1.0, SVG Export Plug-In . SVG Version: 6.00 Build 0)  -->
<svg version="1.1" id="Layer_1" xmlns="http://www.w3.org/2000/svg" xmlns:xlink="http://www.w3.org/1999/xlink" x="0px" y="0px"
	 viewBox="0 0 134.1 56.4" enable-background="new 0 0 134.1 56.4" xml:space="preserve">
<g>
	<path fill="#FFFFFF" d="M60.4,56h-0.2l-8.8-2L51,53.8v-51l0.3-0.5L60.2,0h0.2l8.9,2.3l0.3,0.5l0,51l-0.3,0.2L60.4,56z M53.2,53.8
		l7.1,1.8l7.2-1.8l-7.1-1.8L53.2,53.8z M52,3.4v49.8l8-2.1V5.4L52,3.4z M61,51.1l7.9,2.1l0.1-49.8L61,5.4V51.1z M53.2,2.8l7.1,1.8
		l7.1-1.8L60.3,1L53.2,2.8z M10.7,56.4l-0.2,0L0.4,52.1L0,51.7V6l0.3-0.4l8.2-5.3l0.3-0.1c11.8,0,22.8,4.8,27.4,11.9
		c5.1,7.9,4.2,18,4.2,18.6c0,1.7-0.2,4.1-0.6,5.9c-1.9,7.5-7.5,13.3-16.3,16.8C16.9,56,10.7,56.4,10.7,56.4z M2.7,52.1l8,3.5
		c0.8-0.1,6.4-0.6,12.4-3c5.9-2.4,13.5-7.1,15.7-16.2c0.5-1.9,0.9-4.5,0.8-6.2C39.1,15.9,27,11.9,17,11.1v5c0,0-0.1,0,0,0.1
		c3.9,1,12.8,3.4,14.1,12.3c0,0.2,0,0.4,0,0.6c0.1,1.1,0.1,2.2-0.1,3.2c-0.3,2.7-1.3,6.3-3.5,9.3C23.4,47.5,13.3,51.6,2.7,52.1z
		 M1,6.3v45c11-0.1,21.5-4.2,25.8-10c1-1.4,1.8-3,2.3-4.5c-0.4,0.5-0.8,1-1.2,1.4c-4.7,4.7-13.4,6-19.3,5.3L8,43V1.5L1,6.3z M9,42.6
		c2,0.2,4,0.2,7-0.1V10.6l0.3-0.4c12.6,0.9,20.4,5.7,23.1,14.1c-0.4-3.5-1.6-7.8-4-11.6C31,5.8,21,1.2,9,1.1V42.6z M17,17v25.3
		c4-0.7,7.9-2.2,10.5-4.8c1.5-1.5,2.4-3.2,2.7-5.2c0.2-1.3,0.1-2.5,0-3.2c0,0,0-0.1,0-0.1h0c0,0,0-0.3-0.1-0.4
		C28.9,20.2,20.5,18,16.8,17C16.8,17,17,17,17,17z M120.8,56.4l0-0.1l-0.3-0.3l-4.6-10H93.4l-4.6,9.8L88.4,56h-7.3L81,56.1l-0.2-0.1
		l-4.6-7.5l0-0.4L98.3,0.4L98.7,0h11.9l0.4,0.4l23.2,50.8l-0.1,0.4l0.1,0.2l-4.9,4.4l-0.3,0.1L120.8,56.4z M81.8,55h6.3l4.6-9.8
		l0.4-0.2H116l3.9-3H95.2l-0.4-0.8l9.3-20.4l-3.1-7L81.8,55z M122,55h6.7l3.9-3.3l-6.7,0.1l-0.3,0.1L122,55z M116.7,45.9l4.3,9.2
		l4.1-3.8l-4.2-9.3L116.7,45.9z M77.1,48.3l4,6.7l19.6-42h0.8l9.8,21h6l-15-33H99L77.1,48.3z M95.9,41h25.2l0.4,0.2l4.5,9.9l7.1-0.1
		L110.3,1h-7.1l15.1,33.2l-0.1,0.1L118,35H98.7L95.9,41z M99.1,34h11.3l-5.6-12.2L99.1,34z"/>
</g>
</svg>
